<?xml version="1.0" encoding="UTF-8" standalone="no"?>
<!DOCTYPE svg PUBLIC "-//W3C//DTD SVG 1.1//EN" "http://www.w3.org/Graphics/SVG/1.1/DTD/svg11.dtd">
<svg width="100%" height="100%" viewBox="0 0 799 161" version="1.1" xmlns="http://www.w3.org/2000/svg" xmlns:xlink="http://www.w3.org/1999/xlink" xml:space="preserve" xmlns:serif="http://www.serif.com/" style="fill-rule:evenodd;clip-rule:evenodd;stroke-linecap:round;stroke-linejoin:round;stroke-miterlimit:1.5;">
    <g transform="matrix(1,0,0,1,-1278.705635,-1612.760366)">
        <g transform="matrix(1,0,0,1,1115.410779,1186.619258)">
            <g transform="matrix(0.848439,0,0,0.848439,98.324225,-151.844423)">
                <g transform="matrix(0.885793,0,0,0.885793,93.581416,368.290243)">
                    <path d="M885.691,389.801C885.691,389.801 888.994,382.167 891.279,376.885C892.677,373.656 894.897,370.85 897.719,368.749C899.375,367.516 901.303,366.08 903.115,364.73C907.274,361.634 912.366,360.05 917.547,360.242C919.558,360.316 921.649,360.394 923.433,360.46C926.486,360.573 929.472,361.381 932.166,362.821C934.334,363.981 936.977,365.395 939.089,366.525C941.546,367.839 944.282,368.545 947.069,368.583C951.555,368.646 958.601,368.744 963.144,368.807C966.051,368.847 968.929,369.386 971.654,370.4C973.698,371.16 976.159,372.076 978.199,372.835C980.887,373.835 983.286,375.483 985.185,377.632C988.659,381.565 994.441,388.11 997.812,391.928C999.582,393.931 1001.057,396.178 1002.192,398.598C1002.861,400.026 1003.618,401.641 1004.251,402.991C1005.159,404.927 1005.635,407.038 1005.647,409.176C1005.732,424.041 1006.087,486.062 1006.242,513.215C1006.29,521.639 1004.296,529.95 1000.432,537.436C1000.031,538.213 999.694,538.866 999.46,539.318C999.228,539.769 998.914,540.173 998.535,540.51C997.437,541.485 994.942,543.702 992.632,545.754C989.504,548.533 985.482,550.094 981.3,550.153C978.607,550.191 975.435,550.236 972.516,550.277C966.634,550.359 960.905,548.399 956.307,544.731C955.06,543.736 953.843,542.764 952.839,541.963C951.211,540.665 949.83,539.086 948.76,537.3C948.489,536.849 948.215,536.391 947.965,535.974C947.3,534.865 946.966,533.589 947.001,532.296C947.048,530.621 947.116,528.165 947.175,526.062C947.249,523.382 948.233,520.807 949.965,518.76C950.194,518.489 950.404,518.241 950.578,518.035C950.888,517.669 951.337,517.447 951.817,517.425C952.503,517.392 953.57,517.341 954.641,517.29C956.909,517.182 959.08,518.215 960.427,520.043C961.704,521.777 963.076,523.638 963.076,523.638C963.076,523.638 964.579,525.141 966.059,526.621C967.81,528.372 970.391,528.997 972.748,528.243C972.813,528.222 972.879,528.201 972.944,528.18C975.67,527.308 977.556,524.818 977.657,521.957C977.87,515.963 978.239,505.523 978.513,497.787C978.737,491.471 976.522,485.31 972.329,480.582C970.68,478.722 968.943,476.763 967.406,475.03C964.361,471.597 960.35,469.164 955.899,468.051C953.044,467.338 950.378,466.671 950.378,466.671" style="fill:none;stroke:rgb(100,27,196);stroke-width:13.31px;"/>
                    <path d="M980.749,455.243C980.749,455.243 984.355,458.016 986.638,459.772C987.848,460.703 989.224,461.396 990.692,461.815C992.64,462.372 995.393,463.159 996.929,463.597C997.694,463.816 998.478,463.958 999.27,464.023C1002.048,464.25 1008.988,464.816 1012.611,465.112C1014.127,465.236 1015.652,465.161 1017.148,464.889C1018.281,464.683 1019.635,464.437 1020.69,464.245C1021.849,464.034 1022.959,463.608 1023.961,462.99C1027.598,460.745 1036.514,455.243 1036.514,455.243" style="fill:none;stroke:rgb(222,165,60);stroke-width:13.31px;"/>
                    <path d="M828.553,443.336C828.553,443.336 828.684,436.659 828.784,431.553C828.857,427.815 829.972,424.171 832.003,421.032C833.182,419.211 834.45,417.251 835.328,415.893C836.07,414.747 836.966,413.71 837.993,412.81C840.911,410.252 847.461,404.511 853.287,399.404C860.349,393.214 869.42,389.801 878.81,389.801C883.043,389.801 886.549,389.801 886.549,389.801C886.549,389.801 886.838,400.084 887.041,407.289C887.168,411.793 888.49,416.182 890.871,420.006C892.959,423.36 895.471,427.393 897.041,429.916C898.049,431.535 899.257,433.021 900.636,434.339C904.327,437.866 911.98,445.181 915.605,448.645C916.925,449.907 918.366,451.037 919.906,452.019C920.047,452.109 920.186,452.198 920.322,452.285C921.352,452.941 922.539,453.308 923.759,453.346C924.758,453.377 926.047,453.417 927.339,453.458C930.855,453.568 934.246,452.143 936.628,449.553C937.141,448.995 937.659,448.433 938.146,447.903C939.852,446.048 940.937,443.707 941.25,441.207C941.859,436.339 942.828,428.579 942.828,428.579" style="fill:none;stroke:rgb(100,27,196);stroke-width:13.31px;"/>
                    <circle cx="974.658" cy="419.571" r="6.091" style="fill:rgb(222,165,60);"/>
                </g>
                <g transform="matrix(0.8748,0,0,0.8748,11.28462,380.11845)">
                    <g transform="matrix(214.737259,0,0,214.737259,1043.960556,557.999975)">
                    </g>
                    <text x="62.182px" y="558px" style="font-family:'Poppins-Medium', 'Poppins';font-weight:500;font-size:214.737px;fill:rgb(100,27,196);">SabiNote</text>
                </g>
                <g transform="matrix(1,0,0,1,42.545411,308.054731)">
                    <g transform="matrix(1.083969,0,0,1.083969,-76.596671,-41.308739)">
                        <path d="M442.545,426.771L442.546,426.768C443.899,422.339 447.259,419.149 451.558,416.948L451.692,416.882C454.493,415.53 457.295,414.18 459.386,412.473L459.39,412.469C462.655,408.88 464.722,405.319 465.701,401.73L466.43,396.17C466.459,395.938 466.632,395.749 466.861,395.699C467.09,395.649 467.325,395.748 467.45,395.946C469.489,399.198 471.247,402.356 471.898,405.468C472.854,409.063 473.385,412.137 473.627,414.843C473.855,417.082 473.391,419.056 472.844,421.204C472.761,421.53 472.657,421.851 472.532,422.165C472.157,423.113 471.302,425.262 471.178,425.573C471.141,425.665 471.101,425.756 471.057,425.846C470.495,426.976 470.382,427.959 470.149,429.397C469.995,430.342 470.001,432.093 470.001,433.244C470.001,441.052 463.662,447.39 455.854,447.39C448.047,447.39 441.708,441.052 441.708,433.244C441.708,430.912 441.546,428.711 442.545,426.771Z" style="fill:rgb(250,231,173);"/>
                    </g>
                    <g transform="matrix(0.884473,0.044285,-0.044285,0.884473,32.360561,27.626658)">
                        <path d="M442.523,426.766L442.526,426.76C443.877,422.339 447.225,419.151 451.511,416.948L451.684,416.862C454.482,415.511 457.282,414.162 459.371,412.458L459.375,412.453C462.636,408.868 464.702,405.311 465.68,401.726L466.371,396.45C466.408,396.165 466.62,395.934 466.9,395.873C467.181,395.812 467.469,395.934 467.621,396.178C469.596,399.346 471.284,402.426 471.919,405.463C472.876,409.059 473.407,412.134 473.648,414.84C473.872,417.036 473.432,418.977 472.899,421.076C472.797,421.48 472.668,421.876 472.514,422.263C472.12,423.264 471.3,425.326 471.195,425.591C471.157,425.684 471.116,425.777 471.072,425.868C470.515,426.99 470.403,427.97 470.17,429.4C470.016,430.345 470.023,432.094 470.023,433.244C470.023,441.064 463.674,447.412 455.854,447.412C448.035,447.412 441.686,441.064 441.686,433.244C441.686,430.91 441.526,428.708 442.523,426.766Z" style="fill:rgb(253,162,13);"/>
                    </g>
                </g>
            </g>
        </g>
    </g>
</svg>
